<svg width="24" height="25" viewBox="0 0 24 25" fill="none" xmlns="http://www.w3.org/2000/svg">
<path d="M12 17.1885L8.10976 19.5345C7.96476 19.6192 7.81951 19.6547 7.67401 19.6412C7.52851 19.6277 7.39684 19.5787 7.27901 19.4942C7.16101 19.4096 7.06993 19.299 7.00576 19.1625C6.94176 19.026 6.93151 18.875 6.97501 18.7095L8.00776 14.2922L4.57326 11.3192C4.44493 11.2077 4.36318 11.0786 4.32801 10.9317C4.29268 10.7849 4.30193 10.6422 4.35576 10.5037C4.40959 10.3654 4.48718 10.2523 4.58851 10.1645C4.68984 10.0767 4.82834 10.0192 5.00401 9.99224L9.53651 9.59624L11.2963 5.42499C11.3603 5.26982 11.4573 5.15507 11.5875 5.08074C11.7177 5.0064 11.8552 4.96924 12 4.96924C12.1448 4.96924 12.2823 5.0064 12.4125 5.08074C12.5427 5.15507 12.6398 5.26982 12.7038 5.42499L14.4635 9.59624L18.996 9.99224C19.1717 10.0192 19.3102 10.0767 19.4115 10.1645C19.5128 10.2523 19.5904 10.3654 19.6443 10.5037C19.6981 10.6422 19.7073 10.7849 19.672 10.9317C19.6368 11.0786 19.5551 11.2077 19.4268 11.3192L15.9923 14.2922L17.025 18.7095C17.0685 18.875 17.0583 19.026 16.9943 19.1625C16.9301 19.299 16.839 19.4096 16.721 19.4942C16.6032 19.5787 16.4715 19.6277 16.326 19.6412C16.1805 19.6547 16.0353 19.6192 15.8903 19.5345L12 17.1885Z" fill="#FFD900"/>
</svg>
