<svg width="24" height="25" viewBox="0 0 24 25" fill="none" xmlns="http://www.w3.org/2000/svg">
<path d="M7.30775 21C6.81058 21 6.385 20.823 6.031 20.469C5.677 20.115 5.5 19.6894 5.5 19.1923V6.50001H5.25C5.0375 6.50001 4.85942 6.42809 4.71575 6.28426C4.57192 6.14043 4.5 5.96226 4.5 5.74976C4.5 5.53709 4.57192 5.35901 4.71575 5.21551C4.85942 5.07184 5.0375 5.00001 5.25 5.00001H9C9 4.75518 9.08625 4.54651 9.25875 4.37401C9.43108 4.20168 9.63967 4.11551 9.8845 4.11551H14.1155C14.3603 4.11551 14.5689 4.20168 14.7413 4.37401C14.9138 4.54651 15 4.75518 15 5.00001H18.75C18.9625 5.00001 19.1406 5.07193 19.2843 5.21576C19.4281 5.35959 19.5 5.53776 19.5 5.75026C19.5 5.96293 19.4281 6.14101 19.2843 6.28451C19.1406 6.42818 18.9625 6.50001 18.75 6.50001H18.5V19.1923C18.5 19.6894 18.323 20.115 17.969 20.469C17.615 20.823 17.1894 21 16.6923 21H7.30775ZM17 6.50001H7V19.1923C7 19.2821 7.02883 19.3558 7.0865 19.4135C7.14417 19.4712 7.21792 19.5 7.30775 19.5H16.6923C16.7821 19.5 16.8558 19.4712 16.9135 19.4135C16.9712 19.3558 17 19.2821 17 19.1923V6.50001ZM10.1543 17.5C10.3668 17.5 10.5448 17.4282 10.6885 17.2845C10.832 17.1407 10.9037 16.9625 10.9037 16.75V9.25001C10.9037 9.03751 10.8318 8.85934 10.688 8.71551C10.5443 8.57184 10.3662 8.50001 10.1535 8.50001C9.941 8.50001 9.76292 8.57184 9.61925 8.71551C9.47575 8.85934 9.404 9.03751 9.404 9.25001V16.75C9.404 16.9625 9.47583 17.1407 9.6195 17.2845C9.76333 17.4282 9.94158 17.5 10.1543 17.5ZM13.8465 17.5C14.059 17.5 14.2371 17.4282 14.3807 17.2845C14.5242 17.1407 14.596 16.9625 14.596 16.75V9.25001C14.596 9.03751 14.5242 8.85934 14.3805 8.71551C14.2367 8.57184 14.0584 8.50001 13.8458 8.50001C13.6333 8.50001 13.4552 8.57184 13.3115 8.71551C13.168 8.85934 13.0962 9.03751 13.0962 9.25001V16.75C13.0962 16.9625 13.1682 17.1407 13.312 17.2845C13.4557 17.4282 13.6338 17.5 13.8465 17.5Z" fill="#333333"/>
</svg>
