<svg width="24" height="25" viewBox="0 0 24 25" fill="none" xmlns="http://www.w3.org/2000/svg">
<path d="M5 19.5H6.2615L16.498 9.2635L15.2365 8.002L5 18.2385V19.5ZM4.404 21C4.14783 21 3.93317 20.9133 3.76 20.74C3.58667 20.5668 3.5 20.3522 3.5 20.096V18.3635C3.5 18.1197 3.54683 17.8873 3.6405 17.6663C3.734 17.4453 3.86283 17.2527 4.027 17.0885L16.6905 4.43075C16.8417 4.29342 17.0086 4.18733 17.1913 4.1125C17.3741 4.0375 17.5658 4 17.7663 4C17.9668 4 18.1609 4.03558 18.3488 4.10675C18.5368 4.17792 18.7032 4.29108 18.848 4.44625L20.0693 5.68275C20.2244 5.82758 20.335 5.99425 20.401 6.18275C20.467 6.37125 20.5 6.55975 20.5 6.74825C20.5 6.94942 20.4657 7.14133 20.397 7.324C20.3283 7.50683 20.2191 7.67383 20.0693 7.825L7.4115 20.473C7.24733 20.6372 7.05475 20.766 6.83375 20.8595C6.61275 20.9532 6.38033 21 6.1365 21H4.404ZM15.8563 8.64375L15.2365 8.002L16.498 9.2635L15.8563 8.64375Z" fill="#333333"/>
</svg>
